<svg width="300" height="300" viewBox="0 0 300 300" version="1.1" xmlns="http://www.w3.org/2000/svg" xmlns:xlink="http://www.w3.org/1999/xlink">
<title>Mask Group (1)</title>
<desc>Created using Figma</desc>
<g id="Canvas" transform="translate(-605 3679)">
<g id="Mask Group (1)">
<g id="Canvas">
<g id="Mask Group">
<mask id="mask0_alpha" mask-type="alpha">
<g id="mask0 alpha">
<g id="Rectangle">
<g id="Vector">
<use xlink:href="#path0_fill" transform="translate(605 -3679)" fill="#FFFFFF"/>
</g>
</g>
</g>
</mask>
<g id="iconmonstr flask 3" mask="url(#mask0_alpha)">
<g id="Vector">
<g id="Vector">
<use xlink:href="#path1_fill" transform="matrix(0.901202 -0.433398 0.433398 0.901202 571 -3435.4)" fill="#FFFFFF"/>
</g>
</g>
</g>
<g id="iconmonstr school 2 (1)" mask="url(#mask0_alpha)">
<g id="Vector">
<g id="Vector">
<use xlink:href="#path2_fill" transform="translate(711 -3483)" fill="#FFFFFF"/>
</g>
</g>
</g>
<g id="iconmonstr ruler 10" mask="url(#mask0_alpha)">
<g id="Vector">
<g id="Vector">
<use xlink:href="#path3_fill" transform="matrix(-0.997405 -0.0719974 0.0719974 -0.997405 710.917 -3491.78)" fill="#FFFFFF"/>
</g>
</g>
</g>
<g id="iconmonstr ruler 10" mask="url(#mask0_alpha)">
<g id="Vector">
<g id="Vector">
<use xlink:href="#path3_fill" transform="matrix(0.337005 0.941503 -0.941503 0.337005 871.128 -3653)" fill="#FFFFFF"/>
</g>
</g>
</g>
<g id="iconmonstr pencil 9" mask="url(#mask0_alpha)">
<g id="Vector">
<g id="Vector">
<use xlink:href="#path4_fill" transform="matrix(-0.996735 -0.0807383 0.0807383 -0.996735 715.922 -3653.14)" fill="#FFFFFF"/>
</g>
</g>
</g>
<g id="iconmonstr paintbrush 7 (1)" mask="url(#mask0_alpha)">
<g id="Vector">
<g id="Vector">
<use xlink:href="#path5_fill" transform="translate(628 -3478)" fill="#FFFFFF"/>
</g>
</g>
</g>
<g id="iconmonstr school 4" mask="url(#mask0_alpha)">
<g id="Vector">
<g id="Vector">
<use xlink:href="#path6_fill" transform="translate(743 -3553)" fill="#FFFFFF"/>
</g>
</g>
</g>
<g id="iconmonstr paintbrush 2" mask="url(#mask0_alpha)">
<g id="Vector">
<g id="Vector">
<use xlink:href="#path7_fill" transform="translate(769 -3685)" fill="#FFFFFF"/>
</g>
</g>
</g>
<g id="iconmonstr laptop 4" mask="url(#mask0_alpha)">
<g id="Vector">
<g id="Vector">
<use xlink:href="#path8_fill" transform="matrix(0.912912 0.408156 -0.408156 0.912912 605.489 -3601)" fill="#FFFFFF"/>
</g>
</g>
</g>
<g id="iconmonstr soccer 1" mask="url(#mask0_alpha)">
<g id="Vector">
<g id="Vector">
<use xlink:href="#path9_fill" transform="translate(612 -3499)" fill="#FFFFFF"/>
</g>
</g>
</g>
<g id="iconmonstr school 11" mask="url(#mask0_alpha)">
<g id="Vector">
<g id="Vector">
<use xlink:href="#path10_fill" transform="matrix(-0.914888 0.403707 -0.403707 -0.914888 689.96 -3629.13)" fill="#FFFFFF"/>
</g>
</g>
</g>
<g id="Component" mask="url(#mask0_alpha)">
<g id="iconmonstr rocket 7">
<g id="Vector">
<g id="Vector">
<use xlink:href="#path11_fill" transform="matrix(0.882852 0.469652 -0.469652 0.882852 732.372 -3690.05)" fill="#FFFFFF"/>
</g>
</g>
</g>
<g id="Line">
<g id="Vector">
<use xlink:href="#path12_fill" transform="matrix(0.469652 -0.882852 0.882852 0.469652 674.641 -3531.24)" fill="#FFFFFF"/>
</g>
</g>
<g id="Line">
<g id="Vector">
<use xlink:href="#path12_fill" transform="matrix(0.469652 -0.882852 0.882852 0.469652 679.056 -3528.89)" fill="#FFFFFF"/>
</g>
</g>
<g id="Line">
<g id="Vector">
<use xlink:href="#path13_fill" transform="matrix(0.469652 -0.882852 0.882852 0.469652 696.92 -3545.44)" fill="#FFFFFF"/>
</g>
</g>
<g id="Line">
<g id="Vector">
<use xlink:href="#path13_fill" transform="matrix(0.469652 -0.882852 0.882852 0.469652 678.38 -3555.3)" fill="#FFFFFF"/>
</g>
</g>
</g>
<g id="iconmonstr school 13" mask="url(#mask0_alpha)">
<g id="Vector">
<g id="Vector">
<use xlink:href="#path14_fill" transform="translate(726 -3575)" fill="#FFFFFF"/>
</g>
</g>
</g>
<g id="iconmonstr school 13" mask="url(#mask0_alpha)">
<g id="Vector">
<g id="Vector">
<use xlink:href="#path14_fill" transform="translate(882 -3674)" fill="#FFFFFF"/>
</g>
</g>
</g>
<g id="iconmonstr school 13" mask="url(#mask0_alpha)">
<g id="Vector">
<g id="Vector">
<use xlink:href="#path14_fill" transform="translate(801 -3457)" fill="#FFFFFF"/>
</g>
</g>
</g>
<g id="iconmonstr basketball 2" mask="url(#mask0_alpha)">
<g id="Vector">
<g id="Vector">
<use xlink:href="#path15_fill" transform="translate(780 -3592)" fill="#FFFFFF"/>
</g>
</g>
</g>
<g id="iconmonstr basketball 2" mask="url(#mask0_alpha)">
<g id="Vector">
<g id="Vector">
<use xlink:href="#path15_fill" transform="translate(844 -3451)" fill="#FFFFFF"/>
</g>
</g>
</g>
<g id="iconmonstr book 2" mask="url(#mask0_alpha)">
<g id="Vector">
<g id="Vector">
<use xlink:href="#path16_fill" transform="matrix(0.679829 -0.733371 0.733371 0.679829 793 -3541.67)" fill="#FFFFFF"/>
</g>
</g>
</g>
<g id="Vector" mask="url(#mask0_alpha)">
<g id="Vector">
<use xlink:href="#path17_fill" transform="translate(844 -3516)" fill="#FFFFFF"/>
</g>
</g>
<g id="iconmonstr pencil 9" mask="url(#mask0_alpha)">
<g id="Vector">
<g id="Vector">
<use xlink:href="#path18_fill" transform="matrix(0.97054 0.240942 -0.240942 0.97054 783.565 -3659)" fill="#FFFFFF"/>
</g>
</g>
</g>
<g id="iconmonstr pencil 9" mask="url(#mask0_alpha)">
<g id="Vector">
<g id="Vector">
<use xlink:href="#path4_fill" transform="matrix(0.33063 -0.94376 0.94376 0.33063 851 -3545.35)" fill="#FFFFFF"/>
</g>
</g>
</g>
<g id="Vector" mask="url(#mask0_alpha)">
<g id="Vector">
<use xlink:href="#path19_fill" transform="matrix(0.88803 0.459787 -0.459787 0.88803 829.07 -3426)" fill="#FFFFFF"/>
</g>
</g>
<g id="Vector" mask="url(#mask0_alpha)">
<g id="Vector">
<use xlink:href="#path7_fill" transform="matrix(-1 0 0 1 840 -3499)" fill="#FFFFFF"/>
</g>
</g>
<g id="iconmonstr flask 3" mask="url(#mask0_alpha)">
<g id="Vector">
<g id="Vector">
<use xlink:href="#path1_fill" transform="matrix(0.901202 -0.433398 0.433398 0.901202 871 -3435.4)" fill="#FFFFFF"/>
</g>
</g>
</g>
<g id="iconmonstr school 18" mask="url(#mask0_alpha)">
<g id="Vector">
<g id="Vector">
<use xlink:href="#path20_fill" transform="translate(824 -3628)" fill="#FFFFFF"/>
</g>
</g>
</g>
<g id="iconmonstr laptop 4" mask="url(#mask0_alpha)">
<g id="Vector">
<g id="Vector">
<use xlink:href="#path8_fill" transform="matrix(0.912912 0.408156 -0.408156 0.912912 905.489 -3601)" fill="#FFFFFF"/>
</g>
</g>
</g>
<g id="iconmonstr school 11" mask="url(#mask0_alpha)">
<g id="Vector">
<g id="Vector">
<use xlink:href="#path10_fill" transform="matrix(-0.914888 0.403707 -0.403707 -0.914888 689.96 -3329.13)" fill="#FFFFFF"/>
</g>
</g>
</g>
<g id="iconmonstr paintbrush 2" mask="url(#mask0_alpha)">
<g id="Vector">
<g id="Vector">
<use xlink:href="#path7_fill" transform="translate(769 -3385)" fill="#FFFFFF"/>
</g>
</g>
</g>
<g id="Vector" mask="url(#mask0_alpha)">
<g id="Vector">
<use xlink:href="#path19_fill" transform="matrix(0.88803 0.459787 -0.459787 0.88803 829.07 -3726)" fill="#FFFFFF"/>
</g>
</g>
</g>
</g>
</g>
</g>
<defs>
<path id="path0_fill" d="M 0 0L 300 0L 300 300L 0 300L 0 0Z"/>
<path id="path1_fill" d="M 10 2C 10 0.896 10.896 0 12 0L 24 0C 25.106 0 26 0.896 26 2C 26 3.104 25.106 4 24 4L 12 4C 10.896 4 10 3.104 10 2ZM 36 43.108C 36 45.676 33.954 48 31.152 48L 4.846 48C 2.046 48 0 45.676 0 43.11C 0 42.41 0.152 41.692 0.484 40.996L 7.97 25.284C 10.05 20.912 12 16.122 12 11.27L 12 8L 16 8L 15.988 12C 15.814 17.246 13.808 22.184 12.042 26L 19.406 26L 28.16 44L 31.152 44C 31.77 44 32.192 43.316 31.906 42.712L 24.42 27.004C 22.328 22.61 20.18 17.422 20 12L 20 8L 24 8L 24 11.27C 24 16.122 25.95 20.91 28.032 25.282L 35.518 40.994C 35.848 41.69 36 42.408 36 43.108ZM 12 41C 12 39.342 10.658 38 9 38C 7.342 38 6 39.342 6 41C 6 42.658 7.342 44 9 44C 10.658 44 12 42.658 12 41ZM 16 34C 16 32.894 15.104 32 14 32C 12.894 32 12 32.894 12 34C 12 35.106 12.894 36 14 36C 15.104 36 16 35.106 16 34ZM 22 40C 22 38.896 21.104 38 20 38C 18.896 38 18 38.896 18 40C 18 41.104 18.896 42 20 42C 21.104 42 22 41.104 22 40Z"/>
<path id="path2_fill" fill-rule="evenodd" d="M 5.61999 59.596C 13.516 67.68 22.74 72.196 33.9999 72.196C 54.9719 72.196 71.9998 55.172 71.9998 34.196C 71.9998 22.036 66.9999 13.36 59.2079 5.636L 64.8439 0C 74.0678 8.392 79.9598 20.476 79.9998 33.92C 80.0638 57.296 62.5719 76.676 39.9999 79.68L 39.9999 80C 39.9999 87.5 46.1039 92 51.9999 92L 55.9999 92L 55.9999 96L 12 96L 12 92L 16 92C 21.996 92 27.9999 87.396 27.9999 80L 27.9999 79.716C 16.98 78.312 7.16798 73 -1.55196e-23 65.212L 5.61999 59.596ZM -1.55196e-23 34.4C -1.55196e-23 15.62 15.22 0.4 33.9999 0.4C 52.7519 0.4 67.9998 15.596 67.9998 34.4C 67.9998 53.18 52.7759 68.396 33.9999 68.396C 15.22 68.396 -1.55196e-23 53.172 -1.55196e-23 34.4ZM 35.5319 6.144C 34.8799 6.164 34.4199 6.892 33.9159 7.308C 32.9079 8.144 30.3279 9.784 28.8879 9.284C 27.4159 8.78 24.2679 11.156 23.7639 11.176C 23.5759 11.18 23.7719 9.376 24.7759 9.244C 24.3399 9.308 28.3079 7.24 28.1999 6.808C 28.0719 6.296 20.272 9.136 20.62 9.708C 20.784 9.968 21.464 9.968 20.572 10.54C 20.064 10.848 19.516 12.808 19.036 12.808C 17.608 13.432 17.516 11.58 15.928 13.968L 13.392 14.992C 9.63198 18.984 7.02798 24.048 6.08399 29.672C 6.04799 29.9 7.03198 30.312 7.15598 30.468C 7.47598 30.848 7.47598 32.488 7.63198 33.02C 8.02398 34.376 8.98798 35.128 9.72798 36.36C 10.164 37.096 10.888 38.952 10.66 39.72C 10.968 39.216 13.696 42.032 14.192 42.616C 15.364 44 16.272 45.668 14.364 47.032C 13.748 47.476 15.296 50.232 14.5 50.912L 13.472 51.172C 12.464 51.792 12.92 53.316 13.536 53.956C 18.688 59.344 25.9479 62.7 33.9919 62.7C 49.6199 62.7 62.2919 50.028 62.2919 34.4C 62.2919 31.464 61.7919 28.504 61.2799 26.944C 61.1199 26.452 60.7439 26.056 60.2639 25.872C 59.5359 25.592 56.4719 27.56 56.0119 26.592L 54.3919 26.612C 54.0519 26.428 53.1079 25.156 52.6759 25.308C 51.7999 25.628 54.0199 28.04 54.6239 28.36C 55.1919 27.928 57.0359 27.044 57.4359 28.252C 58.1959 30.528 55.3479 33.024 53.8919 34.344C 51.7159 36.308 52.1199 33.068 50.6399 31.928C 49.8599 31.332 49.8679 30.056 49.0839 29.616C 48.7479 29.428 47.2759 27.744 47.1399 27.36L 47.1319 27.312L 47.1399 27.36L 47.0879 27.78C 46.8199 27.988 46.2559 27.024 46.1919 26.872C 46.1919 27.708 47.5559 29.04 48.0039 29.708C 48.7679 30.856 49.1799 32.528 50.1199 33.468C 50.6239 33.972 52.5559 36.056 53.0559 36.012L 55.6359 34.784C 57.4599 35.216 51.3439 43.868 50.7639 44.936C 50.2839 45.84 51.1479 48.056 51.0839 49.12C 50.9999 50.344 50.0359 50.744 49.1199 51.408C 48.1359 52.128 48.3679 53.52 47.5439 54.028C 46.0799 54.932 45.0239 57.864 42.9479 57.848C 42.3319 57.848 39.7159 58.868 39.3719 57.868C 39.1079 57.144 38.7479 56.592 38.3719 55.876C 38.0079 55.176 38.3319 54.448 37.8839 53.828C 37.5719 53.396 36.5399 52.42 36.4479 51.908C 36.4399 51.472 36.7799 50.136 37.2399 49.9C 37.8919 49.572 37.3639 48.604 37.2839 48.044C 37.1479 47.04 36.5279 46.212 35.7799 45.632C 34.6799 44.784 35.2519 44.112 35.5079 42.9C 35.5079 42.324 35.1559 41.568 34.3759 41.792C 32.7799 42.26 33.2679 40.544 32.1039 40.624C 31.2639 40.68 30.5759 41.216 29.7959 41.448C 28.8159 41.744 27.8119 41.22 26.8439 41.096C 22.856 40.592 21.556 36.036 22.596 32.748L 22.4599 30.796C 22.9079 29.796 23.8239 28.68 24.6199 27.924C 25.0679 27.496 25.6399 27.604 26.1679 27.276C 26.9839 26.764 26.9959 25.708 27.7879 25.064C 28.9239 24.14 30.4679 24.16 31.9519 23.964C 32.7359 23.856 35.7359 23.208 36.2079 23.792C 36.2079 23.9 36.7199 25.424 36.1999 25.42L 36.1519 25.416L 36.1999 25.42C 37.4239 25.528 39.1439 27.532 40.2919 27.056C 40.8919 26.808 40.6719 24.968 41.9039 25.86C 42.6399 26.392 45.9679 26.628 46.6599 26.056C 47.0879 25.704 47.3279 23.42 46.8039 23.164C 47.1319 23.492 45.0799 23.516 44.8839 23.44C 44.5599 23.32 44.2599 23.724 43.7559 23.544L 43.7039 23.524C 43.8599 23.584 41.8959 22.476 43.0639 21.624L 41.5359 21.928L 41.1759 22.7C 40.3199 23.14 39.6719 21.216 39.3519 21C 39.0239 20.784 36.4799 19 37.1719 20.164L 39.4079 22.388C 39.2959 22.46 38.8199 21.58 38.8199 22.224C 38.9679 21.844 38.8719 23.864 38.5239 23.204L 38.5399 22.448C 38.5399 22.204 37.8959 21.972 37.7679 21.808C 37.4159 21.368 36.4719 20.4 35.9639 20.168C 35.8239 20.1 33.7999 20.412 33.6279 20.48L 33.1199 21.36C 32.6999 21.516 32.3079 21.716 31.9359 21.964L 31.4919 22.964C 31.2959 23.136 29.3239 23.788 29.3119 23.812C 29.3959 23.6 27.9319 23.328 28.0279 22.904C 28.1359 22.436 28.6319 20.976 28.5039 20.444C 28.3679 19.884 31.5479 21.248 31.7559 19.776C 31.8359 19.14 31.8799 18.396 30.8639 18.288C 31.0559 18.312 32.8319 17.592 33.1279 17.268C 33.5399 16.792 34.4919 16.012 35.1799 16.012C 35.9839 16.012 35.8079 14.844 36.1799 14.268C 36.5519 14.42 35.9799 15.336 36.4279 15.708C 36.3959 15.416 37.6879 15.864 37.8119 15.8C 38.1119 15.64 39.7519 15.736 39.4959 14.96C 39.2119 14.176 39.6399 14.408 40.0119 14.244C 39.9479 14.268 40.9719 12.492 41.1479 13.076C 41.0279 12.476 39.9559 13.284 39.5839 13.256C 38.7199 13.184 39.0839 11.784 39.4119 11.368C 39.6639 11.044 38.7239 10.648 38.7119 11.268C 38.6959 12.2 37.8279 13.044 38.0279 14.284C 38.3359 16.152 35.9439 13.836 35.7359 13.96C 34.9439 14.44 34.2959 13.356 34.7039 12.7L 36.5519 11.352C 36.8479 10.848 37.1879 10.264 37.6439 9.88C 39.1599 8.608 39.5759 9.628 41.0879 9.764C 42.5639 9.9 41.5839 10.116 41.3839 10.684C 41.1879 11.224 42.1959 11.416 42.5439 10.964C 42.7399 10.704 43.1959 10.048 43.3879 9.564C 43.6399 8.936 45.9399 9.008 44.3359 8.044C 43.2759 7.416 38.6559 6.14 35.5599 6.14L 35.5319 6.144ZM 37.2399 23.548C 37.1399 23.36 38.2079 23.264 38.3959 23.264C 38.6079 23.288 37.8479 24.54 37.2399 23.548ZM 44.4519 19.18C 44.4399 18.764 43.9159 18.376 43.3719 19.092C 42.9919 19.588 43.0599 20.34 42.8559 20.672C 42.5559 21.168 44.4599 21.632 44.4599 21.164C 44.5319 20.376 46.5359 20.984 46.9279 21.092C 47.6279 21.284 48.7479 20.452 47.5239 20.012C 46.5119 19.644 45.9839 19.256 45.8959 18.532C 45.8959 18.532 46.4319 18.036 46.1959 18.064C 45.5759 18.136 44.4519 20.288 44.4519 19.18ZM 31.1439 14.844L 31.4519 14.76L 31.3039 15.144C 31.5479 15.584 31.3679 15.844 31.3279 16.084L 30.9079 16.344C 30.7559 16.532 31.6359 16.56 31.6479 16.584C 31.6799 16.68 30.5839 16.836 30.7879 17.068C 31.0559 17.456 33.1199 16.516 32.7919 16.572C 33.4279 16.252 32.8759 16.216 32.5199 16.032C 32.3959 15.424 32.2959 14.484 31.9159 14.104L 32.1639 13.82C 31.5799 12.972 31.1439 14.844 31.1439 14.844ZM 29.6839 16.388C 29.4439 16.488 29.2039 16.336 29.4399 16.096L 29.6879 15.796L 29.6639 15.66L 29.8599 15.412L 30.0639 15.36L 30.4839 15.068C 30.6079 15.092 30.8999 15.332 30.7999 15.484L 30.5719 15.764C 30.5239 16.236 30.0439 16.232 29.6919 16.388L 29.6759 16.388L 29.6839 16.388Z"/>
<path id="path3_fill" d="M 12.7813 8L 8 12.7813L 8 8L 12.7813 8ZM 16 6.66667L 6.66667 6.66667L 6.66667 16L 16 6.66667ZM 0 0L 0 32L 32 0L 0 0ZM 2.66667 2.66667L 4 2.66667L 4 5.33333L 5.33333 5.33333L 5.33333 2.66667L 8 2.66667L 8 5.33333L 9.33333 5.33333L 9.33333 2.66667L 12 2.66667L 12 5.33333L 13.3333 5.33333L 13.3333 2.66667L 16 2.66667L 16 5.33333L 17.3333 5.33333L 17.3333 2.66667L 20 2.66667L 20 5.33333L 21.3333 5.33333L 21.3333 2.66667L 25.5627 2.66667L 2.66667 25.5613L 2.66667 2.66667Z"/>
<path id="path4_fill" d="M 18.3628 8.464L 19.7958 9.895L 7.1253 22.564L 4.60721e-19 24L 1.43906 16.873L 14.1046 4.205L 15.5356 5.636L 3.28014 17.86L 2.55411 21.444L 6.13826 20.721L 18.3628 8.464ZM 18.3068 0L 15.4916 2.817L 21.1829 8.509L 24 5.688L 18.3068 8.88178e-16L 18.3068 0ZM 5.98825 18.718L 17.3017 7.402L 16.5967 6.695L 5.28322 18.009L 5.98825 18.718Z"/>
<path id="path5_fill" d="M 26.9924 41.9561C 27.0224 45.2679 24.3524 47.9798 21.0343 48.0008C 17.7193 48.0278 15.0193 45.3609 15.0013 42.0491C 14.9713 38.7343 17.6383 36.0344 20.9473 36.0014C 24.2654 35.9804 26.9744 38.6503 26.9924 41.9561ZM 24.0584 29.9988C 20.7463 30.0228 18.0343 27.3589 18.0133 24.0381C 17.9863 20.7293 20.6443 18.0264 23.9654 18.0054C 27.2714 17.9754 29.9894 20.6363 30.0014 23.9511C 30.0374 27.2719 27.3614 29.9688 24.0584 29.9988ZM 48.0016 17.9574C 48.0136 21.2632 45.3586 23.9811 42.0465 24.0021C 38.7285 24.0321 36.0225 21.3652 36.0015 18.0534C 35.9685 14.7356 38.6355 12.0357 41.9565 12.0087C 45.2595 11.9907 47.9716 14.6516 48.0016 17.9574ZM 12.0012 65.4959C 25.7624 66.6358 20.8333 52.0206 33.5654 51.8856L 39.0795 56.4873C 40.4535 73.0974 20.1343 76.8022 12.0012 65.4959ZM 54.1966 44.152C 58.4777 37.4354 71.7348 14.9096 71.7348 14.9096C 72.7938 13.0407 70.4478 11.0908 68.8098 12.4707C 68.8098 12.4707 49.0936 29.6118 43.2765 35.0445C 38.6805 39.3403 38.6595 41.3022 37.1715 48.3848L 42.2115 52.5845C 48.8926 49.8397 50.8156 49.4647 54.1966 44.152ZM 16.3303 58.5692C 10.0782 53.1095 6.07019 45.133 6.00119 36.2294C 5.86919 19.7003 19.2193 6.14105 35.7615 6.00606C 47.2756 5.94306 55.1986 11.7208 55.2496 16.3465L 60.2387 11.9787C 57.2087 5.3101 47.6926 -0.155608 35.7105 0.0033832C 15.8413 0.168374 -0.15487 16.4005 0.00113141 36.2774C 0.0701321 45.013 3.25016 52.9865 8.47021 59.1812C 11.3442 60.6571 14.8393 60.1681 16.3303 58.5692ZM 54.7216 52.8515C 57.8987 58.7612 50.6686 62.961 44.0865 64.8269C 43.1745 67.5627 41.6775 69.9896 39.9645 71.7595C 55.7296 69.9866 67.1478 58.8482 58.7627 48.0938C 57.3857 50.1487 56.0717 51.6846 54.7216 52.8515Z"/>
<path id="path6_fill" fill-rule="evenodd" d="M 13.804 28C 10.36 25.22 8 20.064 8 15.926C 8 9.738 12.316 6.146 16.374 6.004C 18.056 5.978 19.832 6.402 21.162 7.144C 20.812 4.588 19.668 2.626 18.474 1.228L 21.208 0C 21.774 0.814 22.352 2.258 22.73 3.958C 23.496 2.568 24.426 1.434 25.68 0.702C 27.018 -0.08 29.236 -0.122 30.716 0.158C 30.342 1.474 29.562 3.184 27.734 4.308C 26.61 4.998 24.8 5.352 22.966 5.214C 23.05 5.78 23.112 6.362 23.14 6.948C 24.504 6.22 26.02 5.98 27.626 6.004C 31.684 6.146 36 9.738 36 15.926C 36 20.064 33.64 25.22 30.196 28L 44 28L 44 32L 5 32C 4.448 32 4 32.448 4 33C 4 33.552 4.448 34 5 34L 44 34L 44 38L 7 38C 5.344 38 4 39.344 4 41C 4 42.656 5.344 44 7 44L 44 44L 44 48L 7 48C 3.136 48 0 44.864 0 41C 0 39.34 0.58 37.814 1.546 36.614C 0.594 35.704 0 34.42 0 33C 0 30.24 2.24 28 5 28L 13.804 28ZM 44 42L 8 42L 8 40L 44 40L 44 42ZM 22.028 12C 20.702 10.896 19.158 9.868 16.356 10.008C 14.356 10.148 11.828 12.212 12.008 16.332C 12.152 19.696 14.508 23.834 16.954 25.34C 18.948 26.592 20.376 25.878 22 24.912L 22.076 24.958C 23.668 25.9 25.084 26.572 27.046 25.34C 29.492 23.834 31.848 19.696 31.992 16.332C 32.172 12.212 29.644 10.148 27.644 10.008C 25.192 9.884 23.604 10.868 22.028 12ZM 25.528 13.096C 27.872 15.742 27.474 18.226 25.208 22.91C 27.348 22.028 29.226 19.096 29.208 17.044C 29.186 14.552 27.434 12.984 25.528 13.096Z"/>
<path id="path7_fill" d="M 24.3289 9.01754C 22.7089 11.7282 21.1223 14.3535 20.2543 15.7148C 19.161 17.4308 18.785 17.6762 16.5904 18.5708L 16.3597 18.3775C 16.8437 16.0415 17.0144 15.6268 18.501 14.2362C 19.677 13.1389 21.965 11.1015 24.3289 9.01754ZM 10.6371 24.0228L 11.7985 24.9921C 11.5851 28.3908 8.65052 29.5948 6.15723 29.2881C 8.47185 27.1495 8.72252 24.4361 10.6371 24.0228ZM 30.2981 0.248244C 30.2981 0.248244 19.7823 9.39087 16.681 12.2882C 14.2304 14.5802 14.2198 15.6268 13.4264 19.4028L 16.1144 21.6442C 19.6757 20.1788 20.701 19.9802 22.5049 17.1468C 24.7889 13.5642 31.8594 1.54957 31.8594 1.54957C 32.4221 0.552243 31.1715 -0.487753 30.2981 0.248244ZM 11.5011 21.2708C 4.71059 21.3415 7.33987 29.1388 0 28.5308C 4.33593 34.5614 15.1731 32.5854 14.4424 23.7255L 11.5011 21.2708Z"/>
<path id="path8_fill" d="M 66 3.6C 66 1.611 64.389 0 62.4 0L 9.6 0C 7.611 0 6 1.611 6 3.6L 6 39L 66 39L 66 3.6ZM 60 33L 12 33L 12 6L 60 6L 60 33ZM 66 42L 6 42C 5.409 43.116 0 55.746 0 56.994C 0 58.56 1.254 60 3.006 60L 68.994 60C 70.746 60 72 58.56 72 56.994C 72 55.746 66.591 43.116 66 42ZM 29.313 57L 30.714 54L 41.283 54L 42.684 57L 29.313 57Z"/>
<path id="path9_fill" fill-rule="evenodd" d="M 17.422 20.394C 17.245 19.979 17.203 19.696 17.133 19.276C 17.758 18.579 18.322 17.844 18.825 17.072C 19.405 16.876 20.096 16.634 21.106 16.116C 20.311 17.872 19.026 19.355 17.422 20.394ZM 9.241 21.606C 10.28 21.048 11.131 20.413 12.072 19.707C 13.084 19.96 14.151 20.102 15.266 20.15L 15.267 20.157C 15.35 20.592 15.472 20.96 15.629 21.31C 13.642 22.087 11.447 22.24 9.241 21.606ZM 2.001 11.987L 3.274 13.204C 3.08 14.28 3.026 15.273 3.04 16.418C 2.381 15.084 2 13.588 2 12L 2.001 11.987ZM 13.372 2.105L 12.614 3.842C 10.475 4.402 9.23 4.967 7.4 5.949L 4.537 5.363C 6.665 2.974 9.874 1.623 13.372 2.105ZM 11.568 13.874C 10.485 13.148 9.627 12.41 8.102 11.147L 8.648 7.571C 10.094 6.723 11.214 6.332 13.125 5.722C 14.124 6.409 15.109 7.15 16.059 7.938L 16.057 7.961C 15.919 9.7 15.637 11.027 15.212 12.456C 14.016 12.98 12.802 13.454 11.568 13.874ZM 6.81 20.535C 6.255 20.196 5.738 19.807 5.261 19.371C 5.005 17.45 4.9 15.481 5.258 13.506L 5.259 13.502L 6.975 12.757C 8.186 13.883 9.321 14.761 10.651 15.685L 10.714 18.21C 9.391 19.256 8.345 19.948 6.81 20.535ZM 21.918 13.224C 20.918 13.946 20.142 14.449 18.893 14.907L 17.159 12.9C 17.61 11.451 17.897 9.9 18.025 8.173L 20.524 6.792C 21.671 8.664 22.205 10.858 21.918 13.224ZM 12 0C 5.377 0 0 5.377 0 12C 0 18.623 5.377 24 12 24C 18.623 24 24 18.623 24 12C 24 5.377 18.623 0 12 0Z"/>
<path id="path10_fill" fill-rule="evenodd" d="M 22.0436 6.90898C 22.859 3.05099 26.0471 0 30.0014 0C 34.0567 0 37.1984 3.17099 37.9729 6.94798C 42.6118 8.21398 46.4735 10.866 49.0343 15.378C 51.0742 18.9749 51.9087 22.5569 53.2695 33.6449C 56.0021 34.4399 57.7257 36.2399 58.4838 38.9249C 59.2011 41.4629 59.8911 49.6979 59.9947 54.0119C 60.0901 58.4308 58.9175 61.9318 54.8649 63.4048L 54.8376 63.4138C 53.4795 72.6478 45.219 71.9578 42.4918 71.9908C 38.5538 72.0178 35.1503 71.9788 30.0123 71.9578C 26.7452 71.9698 15.4902 71.9968 14.1839 71.9098C 8.77326 71.4358 5.92065 68.2258 5.1925 63.4228C 2.07264 62.3338 -1.94637e-16 59.5228 -1.94637e-16 55.0079C -1.94637e-16 51.1979 0.559067 44.1989 1.31449 39.8399C 1.94992 36.5909 3.73075 34.5149 6.75244 33.6389C 8.0342 22.6949 8.94507 18.072 11.8468 13.875C 14.4403 10.122 17.9692 8.00698 22.0436 6.90898ZM 14.3339 21.3779C 13.1449 25.1009 12.0458 35.3759 11.6313 39.1229C 10.7286 39.1829 9.80412 39.2189 8.89325 39.3089C 7.01697 39.5279 6.80698 40.0739 6.58881 41.4899C 5.84157 46.2959 5.46249 51.8669 5.45704 55.1849C 5.48431 56.9638 6.01338 57.5758 7.35241 57.8458C 7.77785 57.9268 9.88594 58.1158 10.3523 58.1608C 10.5786 65.3938 10.7014 65.9248 17.5765 65.9938C 21.2173 66.0178 30.0123 65.9608 30.0123 65.9608C 37.2039 65.9908 39.5301 66.0238 43.2718 65.9848C 49.4924 65.9188 49.4706 64.7248 49.6724 58.1638C 50.5778 58.0768 51.4832 58.0048 52.3859 57.8908C 54.6658 57.5368 54.6004 56.2648 54.524 53.7209C 54.4149 49.8899 54.0222 45.2999 53.365 41.1359C 53.1795 40.1129 52.8795 39.6779 51.8132 39.4259C 51.066 39.2399 49.1679 39.1709 48.3988 39.1199C 48.0607 36.1199 46.9043 25.3829 45.6962 21.5639C 43.3045 13.995 37.2857 11.994 29.9414 11.994C 22.7145 11.994 16.7338 13.878 14.3339 21.3779ZM 46.3671 53.9669C 46.3344 59.7358 43.9099 62.7778 38.4911 62.9608C 32.8377 63.0178 27.1897 63.0238 21.5363 62.9608C 16.3657 62.7778 13.753 59.4688 13.6385 54.1769L 13.6385 41.9729L 46.3671 41.9729L 46.3671 53.9669ZM 27.277 44.9729L 16.3684 44.9729C 16.3684 48.0809 16.3057 51.1859 16.3711 54.2909C 16.4938 58.2448 18.3101 59.8408 21.5936 59.9608C 27.2088 60.0238 32.824 60.0178 38.4365 59.9608C 42.2082 59.8318 43.6045 58.2658 43.6427 53.9579L 43.6427 44.9729L 32.7313 44.9729L 32.7313 53.9669C 32.7313 55.6199 31.5068 56.9668 30.0042 56.9668C 28.4988 56.9668 27.277 55.6199 27.277 53.9669L 27.277 44.9729ZM 28.4933 20.3849C 23.1917 20.8319 20.44 22.7039 19.731 36.0089C 19.5619 37.9049 17.1102 37.8959 17.0038 35.9519C 17.0393 33.8459 17.4211 30.1169 17.961 27.5399C 18.9401 22.9139 20.7782 19.3139 24.8962 17.985C 27.5525 17.127 32.4804 17.13 35.1203 17.985C 39.0883 19.2629 40.9373 22.6499 41.9273 27.0959C 42.5927 30.0959 42.9963 35.0639 42.9254 36.1439C 42.6963 37.8899 40.4846 37.9229 40.2174 36.1739C 39.3829 26.8859 39.301 20.7959 31.3405 20.3729L 33.184 27.3779C 33.6367 29.6279 32.0795 31.7429 30.0042 31.7429C 27.9561 31.7429 26.407 29.6789 26.8107 27.4529L 28.4933 20.3849ZM 30.0042 26.3669C 30.9041 26.3669 31.635 27.1709 31.635 28.1579C 31.635 29.1479 30.9041 29.9519 30.0042 29.9519C 29.1042 29.9519 28.3761 29.1479 28.3761 28.1579C 28.3761 27.1709 29.1042 26.3669 30.0042 26.3669ZM 34.8885 6.31798C 33.994 4.34099 32.175 2.99699 29.9878 2.99699C 27.7679 3.02699 26.0062 4.37699 25.1253 6.30298C 28.0761 5.90398 31.8014 5.87998 34.8885 6.31798Z"/>
<path id="path11_fill" d="M 13.2347 64.17L 1.07334 72L 0.275377 68.841C -0.285595 66.609 0.0173891 64.239 1.12133 62.244L 8.97194 48.057C 10.1329 52.857 11.5158 57.873 13.2347 64.17ZM 52.8778 62.244L 44.9401 47.892C 43.7672 52.86 42.5313 57.552 40.8334 64.215L 52.9288 72L 53.7267 68.841C 54.2847 66.612 53.9817 64.242 52.8778 62.244ZM 22.6603 72L 31.3448 72L 33.0007 66L 21.0013 66L 22.6603 72ZM 27.001 0C 16.5346 7.509 12.0018 16.464 12.0018 27.573C 12.0018 37.593 15.4396 49.398 19.1414 63L 34.9596 63C 38.5025 48.996 41.8953 37.269 42.0003 27.468C 42.1203 16.275 37.6775 7.551 27.001 0ZM 27.037 7.629C 31.1738 11.232 33.7447 15.102 35.0226 19.617C 33.3487 20.529 30.2019 21 27.001 21C 23.8842 21 20.7854 20.565 19.0784 19.701C 20.4044 15.165 22.9902 11.229 27.037 7.629Z"/>
<path id="path12_fill" d="M 0 2L 90 2L 90 0L 0 0L 0 2Z"/>
<path id="path13_fill" d="M 0 2L 72 2L 72 0L 0 0L 0 2Z"/>
<path id="path14_fill" fill-rule="evenodd" d="M 20 0L 20 14.386C 20 16.777 13.352 24 10.189 24L 0 24L 0 0L 20 0ZM 9.362 22C 13.518 22 12 16 12 16C 12 16 18 17.65 18 13.543L 18 2L 2 2L 2 22L 9.362 22ZM 10 18L 10 19L 5 19L 5 18L 10 18ZM 5 16L 10 16L 10 17L 5 17L 5 16ZM 5 14L 15 14L 15 15L 5 15L 5 14ZM 5 12L 15 12L 15 13L 5 13L 5 12ZM 8.691 8.826L 6.636 8.827L 6.246 9.999L 5 10L 7.113 4.311L 8.199 4.31L 10.332 9.996L 9.086 9.997L 8.691 8.826ZM 13.064 6.811L 14.474 6.81L 14.475 7.829L 13.065 7.83L 13.066 9.424L 11.992 9.425L 11.991 7.831L 10.577 7.832L 10.576 6.813L 11.99 6.812L 11.989 5.284L 13.063 5.284L 13.064 6.811ZM 6.952 7.878L 8.374 7.877L 7.657 5.748L 6.952 7.878Z"/>
<path id="path15_fill" fill-rule="evenodd" d="M 15.063 21.518C 15.489 18.709 15.636 15.918 15.507 13.18C 18.295 13.668 19.5 16.292 20.236 17.664C 18.997 19.463 17.184 20.834 15.063 21.518ZM 6.561 20.382C 9.031 17.698 10.679 14.155 13.507 13.304C 13.639 16.137 13.467 19.034 12.974 21.952C 10.62 22.173 8.414 21.588 6.561 20.382ZM 2.082 13.215C 5.479 11.457 9.281 10.383 13.212 10.005C 13.271 10.438 13.327 10.872 13.371 11.309C 9.345 12.315 7.756 16.189 4.996 19.129C 3.421 17.582 2.362 15.519 2.082 13.215ZM 4.591 5.304C 6.996 5.515 9.791 6.921 12.703 7.08C 12.768 7.376 12.819 7.676 12.876 7.974C 8.831 8.372 4.919 9.553 2.052 10.978C 2.274 8.803 3.202 6.841 4.591 5.304ZM 13.356 2.103C 14.674 2.283 15.909 2.716 17.012 3.358C 16.114 4.163 15.58 4.699 14.251 4.991C 13.99 4.013 13.696 3.049 13.356 2.103ZM 11.2 2.041C 11.578 3.027 11.901 4.037 12.189 5.06C 10.39 4.84 8.61 4.093 6.564 3.616C 7.919 2.735 9.499 2.176 11.2 2.041ZM 21.244 8.19C 18.665 7.81 16.685 7.767 14.893 7.838L 14.732 6.949C 16.811 6.496 17.43 5.392 18.722 4.615C 19.805 5.601 20.675 6.815 21.244 8.19ZM 15.223 9.874C 17.421 9.801 19.643 9.934 21.847 10.315C 22.138 12.02 22.025 13.727 21.352 15.516C 20.039 13.282 17.974 11.29 15.36 11.115C 15.319 10.7 15.277 10.286 15.223 9.874ZM 12 0C 5.377 0 -1.41631e-18 5.377 -1.41631e-18 12C -1.41631e-18 18.623 5.377 24 12 24C 18.624 24 24.001 18.623 24.001 12C 24.001 5.377 18.624 1.77636e-15 12 1.77636e-15"/>
<path id="path16_fill" d="M 6.99 4L 40 4L 40 0L 6 0C 2.686 0 0 2.686 0 6L 0 42C 0 45.314 2.686 48 6 48L 40 48L 40 8L 6.99 8C 4.24 8 4.24 4 6.99 4ZM 8 12L 36 12L 36 44L 8 44L 8 12Z"/>
<path id="path17_fill" d="M 46.2311 40.1151L 36.2751 30.1613C 38.2055 27.1214 39.3217 23.5175 39.3217 19.6595C 39.3217 8.8198 30.502 0 19.6599 0C 8.81773 0 0 8.8198 0 19.6595C 0 30.4993 8.81773 39.3191 19.6619 39.3191C 23.3306 39.3191 26.7673 38.3091 29.7078 36.5532L 39.7518 46.5949C 44.0406 50.8768 50.5219 44.403 46.2311 40.1151ZM 6.0952 19.6595C 6.0952 12.1817 12.1824 6.09586 19.6619 6.09586C 27.1413 6.09586 33.2285 12.1797 33.2285 19.6595C 33.2285 27.1394 27.1413 33.2232 19.6619 33.2232C 12.1824 33.2232 6.0952 27.1374 6.0952 19.6595ZM 10.116 16.1316C 14.0848 6.93384 27.4474 7.99982 29.9639 17.6296C 24.8949 11.6817 15.9751 11.0417 10.116 16.1316Z"/>
<path id="path18_fill" d="M 36.7255 16.928L 39.5916 19.79L 14.2506 45.128L 9.21441e-19 48L 2.87812 33.746L 28.2092 8.41L 31.0713 11.272L 6.56027 35.72L 5.10821 42.888L 12.2765 41.442L 36.7255 16.928ZM 36.6135 0L 30.9833 5.634L 42.3658 17.018L 48 11.376L 36.6135 1.77636e-15L 36.6135 0ZM 11.9765 37.436L 34.6034 14.804L 33.1934 13.39L 10.5664 36.018L 11.9765 37.436Z"/>
<path id="path19_fill" d="M 36.3636 4L 36.3636 44L 3.63636 44L 3.63636 4L 36.3636 4ZM 40 0L 0 0L 0 48L 40 48L 40 0ZM 34.5455 6L 5.45455 6L 5.45455 16L 34.5455 16L 34.5455 6ZM 10.9091 20L 5.45455 20L 5.45455 26L 10.9091 26L 10.9091 20ZM 18.1818 20L 12.7273 20L 12.7273 26L 18.1818 26L 18.1818 20ZM 25.4545 20L 20 20L 20 26L 25.4545 26L 25.4545 20ZM 34.5455 20L 29.0909 20L 29.0909 26L 34.5455 26L 34.5455 20ZM 10.9091 28L 5.45455 28L 5.45455 34L 10.9091 34L 10.9091 28ZM 18.1818 28L 12.7273 28L 12.7273 34L 18.1818 34L 18.1818 28ZM 25.4545 28L 20 28L 20 34L 25.4545 34L 25.4545 28ZM 34.5455 28L 29.0909 28L 29.0909 42L 34.5455 42L 34.5455 28ZM 10.9091 36L 5.45455 36L 5.45455 42L 10.9091 42L 10.9091 36ZM 18.1818 36L 12.7273 36L 12.7273 42L 18.1818 42L 18.1818 36ZM 25.4545 36L 20 36L 20 42L 25.4545 42L 25.4545 36Z"/>
<path id="path20_fill" fill-rule="evenodd" d="M 21.998 44.492C 21.1421 44.492 19.8002 43.074 18.6223 39.94C 17.4644 40.53 16.4585 40.994 15.4806 41.416C 17.0145 45.4 19.1963 48 21.998 48C 24.8777 48 27.1015 45.258 28.6414 41.096C 27.6715 40.694 26.6476 40.236 25.4797 39.658C 24.2818 42.992 22.8839 44.492 21.998 44.492ZM 12.5809 40.06C 6.38342 42.338 0.00199991 42.396 0.00199991 36.772C 0.00199991 34.894 0.871921 32.258 3.59367 28.608C 4.75557 27.05 6.10145 25.518 7.46732 24.112C 10.529 21.002 13.9787 18.012 18.4763 14.914C 16.3105 13.722 13.9487 12.58 11.6449 11.734C 9.28516 10.864 7.20734 10.382 5.61549 10.382C 4.59958 10.382 3.84365 10.596 3.59767 10.958C 3.3317 11.342 3.3217 12.526 4.48759 14.644L 4.90755 14.618C 7.00136 14.618 8.70321 16.35 8.70321 18.484C 8.70321 20.618 7.00136 22.346 4.90755 22.346C 2.81174 22.346 1.1139 20.618 1.1139 18.484C 1.1139 17.792 1.29188 17.144 1.60385 16.582C 0.423962 14.502 -4.5097e-24 12.862 -4.5097e-24 11.576C -4.5097e-24 8.546 2.30779 6.868 5.61549 6.868C 10.643 6.868 17.4144 10.192 21.778 12.76C 26.2056 10.034 33.211 6.442 38.3845 6.442C 42.1702 6.442 43.998 8.55 43.998 11.232C 43.998 13.11 43.1261 15.744 40.4063 19.392C 34.2389 27.666 21.976 36.604 12.5809 40.06ZM 42.4121 31.45C 42.6961 30.91 42.8521 30.298 42.8521 29.646C 42.8521 27.51 41.1543 25.78 39.0584 25.78C 36.9626 25.78 35.2648 27.51 35.2648 29.646C 35.2648 31.778 36.9626 33.506 39.0584 33.506L 39.5744 33.472C 40.6783 35.52 40.6623 36.666 40.4043 37.046C 40.1563 37.408 39.4024 37.62 38.3845 37.62C 35.1808 37.62 30.7192 35.732 27.8455 34.306C 26.8856 34.99 25.6957 35.802 24.5318 36.544C 28.3814 38.616 34.0449 41.134 38.3845 41.134C 41.6642 41.134 44 39.474 44 36.426C 44 35.15 43.578 33.516 42.4121 31.45ZM 16.7465 31.688L 16.7445 31.688L 16.7185 31.668C 14.4307 30.048 12.1749 28.268 10.0851 26.406C 4.4516 32.16 2.86374 36.332 3.60967 37.454C 3.86165 37.832 4.59358 38.052 5.61549 38.052C 10.3151 38.052 17.7744 34.016 22.188 31.122C 27.6055 27.572 33.7869 22.466 37.6586 17.27C 40.6703 13.234 40.7623 11.108 40.3903 10.548C 40.1384 10.168 39.4084 9.952 38.3845 9.952C 34.4809 9.952 28.5374 12.87 25.1137 14.846C 27.6395 16.518 29.9993 18.284 32.1531 20.078C 31.3371 20.908 30.4852 21.716 29.6133 22.5C 27.2215 20.536 24.5658 18.608 21.812 16.88C 18.6503 18.952 15.4666 21.388 12.6069 23.984C 14.7567 25.886 17.3184 27.882 20.0482 29.73C 19.0043 30.392 17.9504 31.024 16.7465 31.688ZM 21.998 20C 24.2058 20 25.9976 21.792 25.9976 24C 25.9976 26.208 24.2058 28 21.998 28C 19.7902 28 17.9984 26.208 17.9984 24C 17.9984 21.792 19.7902 20 21.998 20ZM 18.5203 8.344C 17.3604 7.774 16.3305 7.308 15.3586 6.908C 16.8985 2.744 19.1223 0 21.998 0C 24.8037 0 26.9875 2.604 28.5194 6.584C 27.5395 7.008 26.5276 7.478 25.3757 8.062C 24.2018 4.928 22.8599 3.512 21.998 3.512C 21.1161 3.512 19.7202 5.012 18.5203 8.344Z"/>
</defs>
</svg>
