<svg width="60" height="72" viewBox="0 0 60 72" version="1.1" xmlns="http://www.w3.org/2000/svg" xmlns:xlink="http://www.w3.org/1999/xlink">
<title>backpack</title>
<desc>Created using Figma</desc>
<g id="Canvas" transform="translate(-1475 3306)">
<g id="backpack">
<use xlink:href="#path0_fill" transform="matrix(1 -2.22045e-16 2.22045e-16 1 1475 -3306)" fill="#FFFFFF"/>
</g>
</g>
<defs>
<path id="path0_fill" fill-rule="evenodd" d="M 22.0436 6.90898C 22.859 3.05099 26.0471 0 30.0014 0C 34.0567 0 37.1984 3.17099 37.9729 6.94798C 42.6118 8.21398 46.4735 10.866 49.0343 15.378C 51.0742 18.9749 51.9087 22.5569 53.2695 33.6449C 56.0021 34.4399 57.7257 36.2399 58.4838 38.9249C 59.2011 41.4629 59.8911 49.6979 59.9947 54.0119C 60.0901 58.4308 58.9175 61.9318 54.8649 63.4048L 54.8376 63.4138C 53.4795 72.6478 45.219 71.9578 42.4918 71.9908C 38.5538 72.0178 35.1503 71.9788 30.0123 71.9578C 26.7452 71.9698 15.4902 71.9968 14.1839 71.9098C 8.77326 71.4358 5.92065 68.2258 5.1925 63.4228C 2.07264 62.3338 3.51111e-08 59.5228 3.51111e-08 55.0079C 3.51111e-08 51.1979 0.559067 44.1989 1.31449 39.8399C 1.94992 36.5909 3.73075 34.5149 6.75244 33.6389C 8.0342 22.6949 8.94507 18.072 11.8468 13.875C 14.4403 10.122 17.9692 8.00698 22.0436 6.90898L 22.0436 6.90898ZM 14.3339 21.3779C 13.1449 25.1009 12.0458 35.3759 11.6313 39.1229C 10.7286 39.1829 9.80412 39.2189 8.89325 39.3089C 7.01697 39.5279 6.80698 40.0739 6.58881 41.4899C 5.84157 46.2959 5.46249 51.8669 5.45704 55.1849C 5.48431 56.9638 6.01338 57.5758 7.35241 57.8458C 7.77785 57.9268 9.88594 58.1158 10.3523 58.1608C 10.5786 65.3938 10.7014 65.9248 17.5765 65.9938C 21.2173 66.0178 30.0123 65.9608 30.0123 65.9608C 37.2039 65.9908 39.5301 66.0238 43.2718 65.9848C 49.4924 65.9188 49.4706 64.7248 49.6724 58.1638C 50.5778 58.0768 51.4832 58.0048 52.3859 57.8908C 54.6658 57.5368 54.6004 56.2648 54.524 53.7209C 54.4149 49.8899 54.0222 45.2999 53.365 41.1359C 53.1795 40.1129 52.8795 39.6779 51.8132 39.4259C 51.066 39.2399 49.1679 39.1709 48.3988 39.1199C 48.0607 36.1199 46.9043 25.3829 45.6962 21.5639C 43.3045 13.995 37.2857 11.994 29.9414 11.994C 22.7145 11.994 16.7338 13.878 14.3339 21.3779L 14.3339 21.3779ZM 46.3671 53.9669C 46.3344 59.7358 43.9099 62.7778 38.4911 62.9608C 32.8377 63.0178 27.1897 63.0238 21.5363 62.9608C 16.3657 62.7778 13.753 59.4688 13.6385 54.1769L 13.6385 41.9729L 46.3671 41.9729L 46.3671 53.9669ZM 27.277 44.9729L 16.3684 44.9729C 16.3684 48.0809 16.3057 51.1859 16.3711 54.2909C 16.4938 58.2448 18.3101 59.8408 21.5936 59.9608C 27.2088 60.0238 32.824 60.0178 38.4365 59.9608C 42.2082 59.8318 43.6045 58.2658 43.6427 53.9579L 43.6427 44.9729L 32.7313 44.9729L 32.7313 53.9669C 32.7313 55.6199 31.5068 56.9668 30.0042 56.9668C 28.4988 56.9668 27.277 55.6199 27.277 53.9669L 27.277 44.9729L 27.277 44.9729ZM 28.4933 20.3849C 23.1917 20.8319 20.44 22.7039 19.731 36.0089C 19.5619 37.9049 17.1102 37.8959 17.0038 35.9519C 17.0393 33.8459 17.4211 30.1169 17.961 27.5399C 18.9401 22.9139 20.7782 19.3139 24.8962 17.985C 27.5525 17.127 32.4804 17.13 35.1203 17.985C 39.0883 19.2629 40.9373 22.6499 41.9273 27.0959C 42.5927 30.0959 42.9963 35.0639 42.9254 36.1439C 42.6963 37.8899 40.4846 37.9229 40.2174 36.1739C 39.3829 26.8859 39.301 20.7959 31.3405 20.3729L 33.184 27.3779C 33.6367 29.6279 32.0795 31.7429 30.0042 31.7429C 27.9561 31.7429 26.407 29.6789 26.8107 27.4529L 28.4933 20.3849L 28.4933 20.3849ZM 30.0042 26.3669C 30.9041 26.3669 31.635 27.1709 31.635 28.1579C 31.635 29.1479 30.9041 29.9519 30.0042 29.9519C 29.1042 29.9519 28.3761 29.1479 28.3761 28.1579C 28.3761 27.1709 29.1042 26.3669 30.0042 26.3669ZM 34.8885 6.31798C 33.994 4.34099 32.175 2.99699 29.9878 2.99699C 27.7679 3.02699 26.0062 4.37699 25.1253 6.30298C 28.0761 5.90398 31.8014 5.87998 34.8885 6.31798Z"/>
</defs>
</svg>
