<?xml version="1.0" encoding="utf-8"?>
<!-- Generator: Adobe Illustrator 22.0.1, SVG Export Plug-In . SVG Version: 6.00 Build 0)  -->
<svg version="1.1" id="Layer_1" xmlns="http://www.w3.org/2000/svg" xmlns:xlink="http://www.w3.org/1999/xlink" x="0px" y="0px"
	 viewBox="0 0 2794 1642" style="enable-background:new 0 0 2794 1642;" xml:space="preserve">
<style type="text/css">
	.st0{fill:#EBEBEB;}
</style>
<title>4</title>
<desc>Created using Figma</desc>
<g id="_x34_">
	<g id="Ellipse">
		<g transform="translate(20047 17183)">
			<path id="path1_fill" class="st0" d="M948.8,224.2c0,106-86,192-192,192c-106,0-192-86-192-192c0-106,86-192,192-192
				C862.8,32.2,948.8,118.2,948.8,224.2z"/>
		</g>
	</g>
	<g id="Ellipse_1_">
		<g transform="translate(20175 18566)">
			<path id="path2_fill" class="st0" d="M820.8,1479.2c0,35.3-28.7,64-64,64s-64-28.7-64-64s28.7-64,64-64
				S820.8,1443.9,820.8,1479.2z"/>
		</g>
	</g>
	<g id="Ellipse_2_">
		<g transform="translate(20617 18374)">
			<path id="path2_fill_1_" class="st0" d="M1262.8,1287.2c0,35.3-28.7,64-64,64s-64-28.7-64-64s28.7-64,64-64
				S1262.8,1251.9,1262.8,1287.2z"/>
		</g>
	</g>
	<g id="Ellipse_3_">
		<g transform="translate(19511 17864)">
			<path id="path3_fill" class="st0" d="M284.8,841.2c0,70.7-57.3,128-128,128c-70.7,0-128-57.3-128-128c0-70.7,57.3-128,128-128
				C227.5,713.2,284.8,770.5,284.8,841.2z"/>
		</g>
	</g>
	<g id="Ellipse_4_">
		<g transform="translate(19639 17407)">
			<path id="path4_fill" class="st0" d="M476.8,416.2c0,88.4-71.6,160-160,160c-88.4,0-160-71.6-160-160c0-88.4,71.6-160,160-160
				C405.1,256.2,476.8,327.9,476.8,416.2z"/>
		</g>
	</g>
	<g id="Ellipse_5_">
		<g transform="translate(19703 18342)">
			<path id="path5_fill" class="st0" d="M412.8,1287.2c0,53-43,96-96,96c-53,0-96-43-96-96c0-53,43-96,96-96
				C369.8,1191.2,412.8,1234.2,412.8,1287.2z"/>
		</g>
	</g>
</g>
</svg>
