<svg width="60" height="72" viewBox="0 0 60 72" version="1.1" xmlns="http://www.w3.org/2000/svg" xmlns:xlink="http://www.w3.org/1999/xlink">
<title>flask</title>
<desc>Created using Figma</desc>
<g id="Canvas" transform="translate(-1548 3306)">
<g id="flask">
<g id="Vector">
<use xlink:href="#path0_fill" transform="translate(1548 -3306)" fill="#FFFFFF"/>
</g>
</g>
</g>
<defs>
<path id="path0_fill" d="M 16.6667 3C 16.6667 1.344 18.16 0 20 0L 40 0C 41.8433 0 43.3333 1.344 43.3333 3C 43.3333 4.656 41.8433 6 40 6L 20 6C 18.16 6 16.6667 4.656 16.6667 3ZM 60 64.662C 60 68.514 56.59 72 51.92 72L 8.07667 72C 3.41 72 0 68.514 0 64.665C 0 63.615 0.253334 62.538 0.806667 61.494L 13.2833 37.926C 16.75 31.368 20 24.183 20 16.905L 20 12L 26.6667 12L 26.6467 18C 26.3567 25.869 23.0133 33.276 20.07 39L 32.3433 39L 46.9333 66L 51.92 66C 52.95 66 53.6533 64.974 53.1767 64.068L 40.7 40.506C 37.2133 33.915 33.6333 26.133 33.3333 18L 33.3333 12L 40 12L 40 16.905C 40 24.183 43.25 31.365 46.72 37.923L 59.1967 61.491C 59.7467 62.535 60 63.612 60 64.662L 60 64.662ZM 20 61.5C 20 59.013 17.7633 57 15 57C 12.2367 57 10 59.013 10 61.5C 10 63.987 12.2367 66 15 66C 17.7633 66 20 63.987 20 61.5ZM 26.6667 51C 26.6667 49.341 25.1733 48 23.3333 48C 21.49 48 20 49.341 20 51C 20 52.659 21.49 54 23.3333 54C 25.1733 54 26.6667 52.659 26.6667 51ZM 36.6667 60C 36.6667 58.344 35.1733 57 33.3333 57C 31.4933 57 30 58.344 30 60C 30 61.656 31.4933 63 33.3333 63C 35.1733 63 36.6667 61.656 36.6667 60Z"/>
</defs>
</svg>
