<svg width="2794" height="1642" viewBox="0 0 2794 1642" version="1.1" xmlns="http://www.w3.org/2000/svg" xmlns:xlink="http://www.w3.org/1999/xlink">
<title>4</title>
<desc>Created using Figma</desc>
<g id="Canvas" transform="translate(-19511 -17183)">
<g id="4">
<g id="NOT YET">
<use xlink:href="#path0_fill" transform="translate(19959 17183)" fill="#EBEBEB"/>
</g>
<g id="Ellipse">
<use xlink:href="#path1_fill" transform="translate(20047 17183)" fill="#EBEBEB"/>
</g>
<g id="Ellipse">
<use xlink:href="#path2_fill" transform="translate(20175 18566)" fill="#EBEBEB"/>
</g>
<g id="Ellipse">
<use xlink:href="#path2_fill" transform="translate(20617 18374)" fill="#EBEBEB"/>
</g>
<g id="Ellipse">
<use xlink:href="#path3_fill" transform="translate(19511 17864)" fill="#EBEBEB"/>
</g>
<g id="Ellipse">
<use xlink:href="#path4_fill" transform="translate(19639 17407)" fill="#EBEBEB"/>
</g>
<g id="Ellipse">
<use xlink:href="#path5_fill" transform="translate(19703 18342)" fill="#EBEBEB"/>
</g>
</g>
</g>
<defs>
<path id="path0_fill" d="M 471.611 657L 404.411 993L 326.171 993L 215.291 808.68L 178.331 993L 85.2113 993L 152.411 657L 230.651 657L 342.011 840.84L 378.491 657L 471.611 657ZM 653.37 999.72C 619.45 999.72 589.85 993.48 564.57 981C 539.61 968.52 520.25 951.08 506.49 928.68C 493.05 906.28 486.33 880.68 486.33 851.88C 486.33 813.48 495.13 778.92 512.73 748.2C 530.65 717.48 555.45 693.48 587.13 676.2C 619.13 658.92 655.45 650.28 696.09 650.28C 730.01 650.28 759.45 656.52 784.41 669C 809.69 681.48 829.05 698.92 842.49 721.32C 856.25 743.72 863.13 769.32 863.13 798.12C 863.13 836.52 854.17 871.08 836.25 901.8C 818.65 932.52 793.85 956.52 761.85 973.8C 730.17 991.08 694.01 999.72 653.37 999.72ZM 661.53 921C 682.65 921 701.21 915.72 717.21 905.16C 733.21 894.6 745.53 880.52 754.17 862.92C 762.81 845 767.13 825.32 767.13 803.88C 767.13 781.16 760.09 763.08 746.01 749.64C 732.25 735.88 712.89 729 687.93 729C 666.81 729 648.25 734.28 632.25 744.84C 616.25 755.4 603.93 769.64 595.29 787.56C 586.65 805.16 582.33 824.68 582.33 846.12C 582.33 868.84 589.21 887.08 602.97 900.84C 617.05 914.28 636.57 921 661.53 921ZM 996.54 732.36L 893.34 732.36L 908.7 657L 1209.66 657L 1194.3 732.36L 1091.58 732.36L 1039.26 993L 944.22 993L 996.54 732.36ZM 1521.07 873.96L 1497.56 993L 1402.52 993L 1426.52 871.56L 1341.07 657L 1436.59 657L 1489.4 790.92L 1596.91 657L 1693.4 657L 1521.07 873.96ZM 1794.88 730.44L 1783.84 787.08L 1933.12 787.08L 1919.2 858.12L 1769.44 858.12L 1757.44 919.56L 1933.6 919.56L 1918.24 993L 1648.96 993L 1716.16 657L 1979.2 657L 1964.32 730.44L 1794.88 730.44ZM 2094.82 732.36L 1991.62 732.36L 2006.98 657L 2307.94 657L 2292.58 732.36L 2189.86 732.36L 2137.54 993L 2042.5 993L 2094.82 732.36Z"/>
<path id="path1_fill" d="M 384 192C 384 298.039 298.039 384 192 384C 85.9613 384 0 298.039 0 192C 0 85.9613 85.9613 0 192 0C 298.039 0 384 85.9613 384 192Z"/>
<path id="path2_fill" d="M 128 64C 128 99.3462 99.3462 128 64 128C 28.6538 128 0 99.3462 0 64C 0 28.6538 28.6538 0 64 0C 99.3462 0 128 28.6538 128 64Z"/>
<path id="path3_fill" d="M 256 128C 256 198.692 198.692 256 128 256C 57.3076 256 0 198.692 0 128C 0 57.3076 57.3076 0 128 0C 198.692 0 256 57.3076 256 128Z"/>
<path id="path4_fill" d="M 320 160C 320 248.366 248.366 320 160 320C 71.6344 320 0 248.366 0 160C 0 71.6344 71.6344 0 160 0C 248.366 0 320 71.6344 320 160Z"/>
<path id="path5_fill" d="M 192 96C 192 149.019 149.019 192 96 192C 42.9807 192 0 149.019 0 96C 0 42.9807 42.9807 0 96 0C 149.019 0 192 42.9807 192 96Z"/>
</defs>
</svg>
