<svg width="60" height="72" viewBox="0 0 60 72" version="1.1" xmlns="http://www.w3.org/2000/svg" xmlns:xlink="http://www.w3.org/1999/xlink">
<title>pencil</title>
<desc>Created using Figma</desc>
<g id="Canvas" transform="translate(-1630 3306)">
<g id="pencil">
<g id="iconmonstr-pencil-9">
<g id="Vector">
<use xlink:href="#path0_fill" transform="matrix(1 -5.55112e-17 5.55112e-17 1 1642 -3282)" fill="#FFFFFF"/>
</g>
</g>
<g id="iconmonstr-ruler-10">
<g id="Vector">
<use xlink:href="#path1_fill" transform="matrix(1 5.55112e-17 -5.55112e-17 1 1630 -3306)" fill="#FFFFFF"/>
</g>
</g>
</g>
</g>
<defs>
<path id="path0_fill" d="M 36.7255 16.928L 39.5916 19.79L 14.2506 45.128L 9.5e-11 48L 2.87812 33.746L 28.2092 8.41L 31.0713 11.272L 6.56027 35.72L 5.10821 42.888L 12.2765 41.442L 36.7255 16.928L 36.7255 16.928ZM 36.6135 0L 30.9833 5.634L 42.3658 17.018L 48 11.376L 36.6135 1.77636e-15L 36.6135 0ZM 11.9765 37.436L 34.6034 14.804L 33.1934 13.39L 10.5664 36.018L 11.9765 37.436L 11.9765 37.436Z"/>
<path id="path1_fill" d="M 19.172 12L 12 19.172L 12 12L 19.172 12ZM 24 10L 10 10L 10 24L 24 10ZM 0 0L 0 48L 48 0L 0 0ZM 4 4L 6 4L 6 8L 8 8L 8 4L 12 4L 12 8L 14 8L 14 4L 18 4L 18 8L 20 8L 20 4L 24 4L 24 8L 26 8L 26 4L 30 4L 30 8L 32 8L 32 4L 38.344 4L 4 38.342L 4 4Z"/>
</defs>
</svg>
