<?xml version="1.0" standalone="no"?>
<!DOCTYPE svg PUBLIC "-//W3C//DTD SVG 20010904//EN"
 "http://www.w3.org/TR/2001/REC-SVG-20010904/DTD/svg10.dtd">
<svg version="1.0" xmlns="http://www.w3.org/2000/svg"
 width="1024.000000pt" height="1024.000000pt" viewBox="0 0 1024.000000 1024.000000"
 preserveAspectRatio="xMidYMid meet">
<metadata>
Created by potrace 1.11, written by Peter Selinger 2001-2013
</metadata>
<g transform="translate(0.000000,1024.000000) scale(0.100000,-0.100000)"
fill="#000000" stroke="none">
<path d="M5728 10235 c-2 -2 -21 -6 -43 -9 -65 -11 -117 -21 -150 -30 -73 -20
-132 -40 -139 -47 -6 -5 -18 -9 -28 -9 -10 0 -18 -4 -18 -10 0 -5 -7 -10 -16
-10 -14 0 -89 -38 -154 -79 -109 -67 -326 -269 -353 -328 -6 -13 -14 -23 -19
-23 -4 0 -8 -7 -8 -15 0 -8 -3 -15 -7 -15 -29 0 -166 -311 -188 -425 -6 -30
-9 -46 -20 -100 -14 -66 -13 -302 2 -390 15 -93 20 -120 23 -120 1 0 3 -10 6
-23 5 -28 46 -144 70 -197 10 -22 17 -43 16 -47 -1 -3 5 -12 13 -18 8 -7 15
-17 15 -22 0 -10 95 -154 132 -201 48 -61 174 -178 247 -231 72 -52 237 -145
264 -150 6 -1 22 -8 35 -14 12 -7 22 -11 22 -8 0 3 15 -1 34 -9 18 -8 44 -16
57 -19 13 -3 54 -12 90 -20 138 -31 348 -36 479 -11 14 3 39 7 55 10 92 18
299 99 380 148 82 50 182 126 246 188 67 66 189 209 189 223 0 3 15 29 33 58
31 49 86 160 92 183 1 6 5 19 9 30 35 93 60 200 72 300 5 46 5 248 0 285 -14
98 -32 191 -43 220 -4 8 -7 17 -8 20 -12 47 -85 222 -95 230 -3 3 -12 20 -19
38 -8 17 -17 32 -22 32 -5 0 -9 5 -9 10 0 25 -128 184 -204 253 -22 21 -68 59
-101 85 -33 25 -61 50 -63 54 -2 4 -10 8 -17 8 -8 0 -20 6 -27 13 -31 30 -248
129 -311 142 -10 2 -27 7 -37 10 -79 25 -222 42 -350 43 -71 0 -130 -1 -132
-3z"/>
<path d="M2816 8722 c-2 -1 -25 -5 -51 -8 -82 -8 -186 -35 -280 -72 -49 -20
-91 -39 -93 -44 -2 -4 -8 -8 -14 -8 -6 0 -47 -24 -92 -54 -82 -55 -195 -158
-244 -225 -15 -20 -29 -38 -32 -41 -15 -14 -73 -114 -105 -182 -38 -81 -83
-241 -91 -323 -10 -110 -5 -251 11 -325 4 -14 8 -34 9 -45 6 -36 19 -80 26
-90 4 -5 10 -22 14 -38 12 -48 101 -225 126 -247 3 -3 18 -23 34 -45 35 -50
179 -190 217 -212 16 -10 29 -21 29 -25 0 -4 5 -8 10 -8 6 0 29 -12 53 -27 23
-15 44 -28 47 -28 3 -1 32 -14 65 -29 33 -15 67 -29 75 -32 8 -2 44 -12 80
-22 236 -69 537 -39 764 75 62 31 143 79 156 93 3 3 32 28 65 55 33 28 73 65
90 84 16 19 35 39 40 45 52 53 142 208 175 301 12 33 24 67 28 75 3 8 6 20 7
25 1 6 4 19 8 30 3 11 9 34 11 50 3 17 8 48 12 70 8 48 11 245 4 245 -3 0 -6
17 -6 38 -4 102 -64 280 -135 400 -73 123 -82 135 -182 233 -85 85 -171 147
-275 197 -100 50 -160 70 -252 88 -14 2 -32 7 -40 10 -23 8 -258 23 -264 16z"/>
<path d="M1748 5625 c-2 -2 -29 -6 -61 -9 -32 -4 -89 -16 -125 -28 -65 -20
-212 -85 -222 -98 -3 -4 -12 -11 -21 -16 -31 -17 -92 -69 -135 -114 -47 -49
-114 -135 -114 -145 0 -4 -9 -20 -21 -36 -11 -16 -17 -29 -12 -29 4 0 3 -4 -3
-8 -12 -8 -60 -131 -68 -172 -2 -14 -9 -45 -15 -70 -10 -44 -8 -263 3 -309 27
-116 99 -284 138 -323 10 -10 18 -22 18 -27 0 -9 107 -121 155 -161 54 -46
204 -130 232 -130 7 0 13 -5 13 -12 0 -6 2 -9 6 -6 3 3 25 0 49 -8 78 -23 127
-29 255 -28 240 1 427 79 601 253 134 134 213 289 242 475 21 137 13 238 -34
416 -2 8 -24 54 -48 103 -85 173 -217 304 -399 397 -34 17 -70 33 -79 35 -10
2 -44 11 -77 20 -32 9 -75 18 -95 21 -44 6 -180 12 -183 9z"/>
<path d="M2779 2378 c-61 -15 -163 -50 -189 -66 -75 -45 -110 -72 -156 -117
-122 -120 -183 -262 -189 -435 -2 -82 2 -119 28 -235 6 -24 63 -135 69 -135 5
0 8 -6 8 -14 0 -22 129 -150 190 -188 58 -37 137 -70 208 -88 57 -15 186 -19
242 -8 25 5 55 11 68 14 35 7 111 39 167 70 84 47 196 168 244 265 23 47 43
91 45 99 2 8 6 26 9 40 18 67 23 192 12 245 -4 17 -8 37 -9 45 -5 40 -31 111
-62 170 -67 127 -171 226 -305 288 -105 48 -287 72 -380 50z"/>
<path d="M8809 2165 c-2 -2 -17 -5 -34 -8 -81 -14 -155 -55 -222 -124 -124
-128 -154 -326 -74 -490 49 -99 136 -177 244 -217 56 -21 175 -29 235 -15 212
47 356 242 339 458 -8 108 -47 191 -128 272 -54 54 -134 101 -195 115 -33 7
-160 14 -165 9z"/>
<path d="M5763 854 c-69 -19 -161 -74 -205 -122 -37 -41 -88 -122 -92 -144 -1
-7 -5 -18 -9 -25 -6 -9 -15 -72 -19 -128 0 -5 3 -35 7 -65 12 -90 71 -202 133
-254 7 -6 21 -19 30 -29 9 -9 21 -17 27 -17 5 0 21 -9 35 -20 14 -11 34 -20
46 -20 11 0 25 -5 32 -12 21 -21 209 -16 267 6 96 38 164 91 219 175 118 176
85 415 -79 563 -35 32 -136 85 -180 94 -61 12 -161 11 -212 -2z"/>
</g>
</svg>
